<?xml version="1.0" encoding="utf-8"?>
<!-- Generator: Adobe Illustrator 19.1.0, SVG Export Plug-In . SVG Version: 6.00 Build 0)  -->
<svg version="1.1" id="Layer_1" xmlns="http://www.w3.org/2000/svg" xmlns:xlink="http://www.w3.org/1999/xlink" x="0px" y="0px"
	 viewBox="0 0 233.7 207.2" style="enable-background:new 0 0 233.7 207.2;" xml:space="preserve">
<style type="text/css">
	.st0{fill:none;}
	.st1{fill:#E3BB94;}
	.st2{fill:#C1272D;}
	.st3{fill:#EFCAA6;}
	.st4{fill:#F9E8D8;}
	.st5{fill:#E6B7AF;}
	.st6{fill:#E0A39A;}
	.st7{fill:#F4D9BF;}
</style>
<g>
	<path class="st0" d="M29.9,96.4c-0.7,2.7-1,5-0.7,6.8c0.5,3.1,2.5,5.8,5.1,8.1c0.2-2.4,0.6-4.6,1-6.8
		C33.5,101.8,31.7,99.1,29.9,96.4z"/>
	<path class="st0" d="M199.4,111.3c2.6-2.3,4.6-5,5.1-8.1c0.3-1.8,0-4.2-0.7-6.8c-1.8,2.7-3.6,5.4-5.5,8.1
		C198.8,106.7,199.1,109,199.4,111.3z"/>
	<path class="st1" d="M198.4,104.5c1.8-2.7,3.7-5.4,5.5-8.1c-3.1-12.2-14.4-30.9-14.6-32.8c-0.2-1.4-3.1-7.4-4.5-12
		c0,0-1,0.1-2.3,0.1c-10.1,2.7-18.8,5.3-19.9,5.9c-0.5,0.3-1.4,0.9-2.5,1.7C177.4,66.4,193.5,79.7,198.4,104.5z"/>
	<path class="st1" d="M203.6,46.5c-1.7,0.3-3.5,0.7-5.4,1.2c3.8,9.3,10.4,20.2,16.5,31.6c3.8-6.4,6.4-11.4,6.5-13.4
		c0.1-2.3,0-4.7-0.2-7.1c-0.1-0.7-0.1-1.4-0.2-2.1c-0.7-5.2-2-9.8-3.9-11.5C215.9,44.4,210.6,45.1,203.6,46.5z"/>
	<path class="st2" d="M184.3,164.3c-5.7,9.5-14.6,16.7-28.6,19c-1.7,2.7-3.7,5.2-5.9,7.5c29,0.2,41.3-14.4,46.5-33.8
		c-3.9,1.8-7.2,3-9.5,3.7C186,161.9,185.2,163.1,184.3,164.3z"/>
	<path class="st3" d="M184.3,164.3c-5.3,6.8-13.5,12.1-26,14.2c-0.8,1.7-1.7,3.3-2.6,4.8C169.7,181,178.7,173.8,184.3,164.3z"/>
	<path class="st3" d="M116.9,65.9c-24.1,0-73.1,5-76.5,49.8c0.8,0.5,1.6,1,2.4,1.4c2.7-6.7,7.3-12.2,13.1-16.6
		c0.5-8.9,9.9-15.9,21.4-15.9c3.8,0,7.3,0.8,10.4,2.1c10.7-2.5,21.3-3.5,29.2-3.5s18.4,1,29.2,3.5c3.1-1.3,6.6-2.1,10.4-2.1
		c11.5,0,20.9,7.1,21.4,15.9c5.8,4.4,10.4,9.9,13.1,16.6c0.8-0.5,1.6-0.9,2.4-1.4C189.9,70.9,141,65.9,116.9,65.9z"/>
	<path class="st4" d="M158.4,178.5c0.6-1.3,1.2-2.7,1.7-4.1c3.5-2,5.1-5.3,5.1-9.8c0-3.1-0.8-5-2.5-6.1
		c-0.3-24.8-21.1-31.2-45.9-31.2s-45.5,6.4-45.9,31.2c-1.7,1.1-2.5,2.9-2.5,6.1c0,4.5,1.6,7.9,5.1,9.8c0.5,1.4,1.1,2.8,1.7,4.1
		c0.8,1.7,1.7,3.3,2.6,4.8c1.7,2.7,3.7,5.2,5.9,7.5c6.7,6.9,15.6,11.8,25.4,13.4c-2.3-2-3.9-4.8-4.1-8c-5.2-3.7-8.6-9.7-8.6-16.5
		c0-11.2,3.5-10.5,20.2-11.9c16.8,1.4,20.2,0.7,20.2,11.9c0,6.8-3.5,12.9-8.6,16.5c-0.2,3.2-1.8,6-4.1,8c9.8-1.7,18.7-6.5,25.4-13.4
		c2.2-2.3,4.2-4.8,5.9-7.5C156.7,181.7,157.6,180.1,158.4,178.5z M106.6,147.7c-9.3-0.9-14,2.9-14.1,3l-1.9-2.3
		c0.2-0.2,5.7-4.7,16.3-3.7L106.6,147.7z M127.1,147.7l-0.3-3c10.6-1,16.1,3.5,16.3,3.7l-1,1.1l-1,1.1
		C141.2,150.7,136.4,146.8,127.1,147.7z"/>
	<path d="M128.5,196.3c5.2-3.7,8.6-9.7,8.6-16.5c0-11.2-3.5-10.5-20.2-11.9c-16.8,1.4-20.2,0.7-20.2,11.9c0,6.8,3.5,12.9,8.6,16.5
		c0.2,3.2,1.8,6,4.1,8c2.1,1.8,4.8,2.9,7.5,2.9s5.4-1.1,7.5-2.9C126.7,202.3,128.3,199.5,128.5,196.3z"/>
	<path class="st5" d="M155.6,93.2c0,2.9,3,5.3,6.8,5.3c3.8,0,6.8-2.4,6.8-5.3c0-2.9-3-5.3-6.8-5.3C158.6,88,155.6,90.3,155.6,93.2z
		 M162.4,90.4c2,0,3.7,1.3,3.7,2.9c0,1.6-1.6,2.9-3.7,2.9c-2,0-3.7-1.3-3.7-2.9C158.7,91.7,160.4,90.4,162.4,90.4z"/>
	<ellipse class="st6" cx="162.4" cy="93.2" rx="3.7" ry="2.9"/>
	<path d="M142.2,149.5l1-1.1c-0.2-0.2-5.7-4.7-16.3-3.7l0.3,3c9.3-0.9,14,2.9,14.1,3L142.2,149.5z"/>
	<path class="st7" d="M198.3,47.7c-0.7-1.8-1.3-3.5-1.8-5.2c0,0,0,0,0,0c-0.2-3.6-1.1-12.2-4.2-16.6c-4-5.7-11-8.3-11.3-5.7
		c-0.2,1.4,0.4,2.6,1,3.7c-2.4,0.3-4.9,0.9-6.7,1.7c-4,1.7,0.7,3.3,5.5,3.3c2.1,0,4.1,2.5,5.8,5.1c0.7,2.4,1.2,4.7,0.7,5.6
		c0,0-2.3,6-4,4.2c-1.7-1.8-5.3-1.8-5.3-5.2c0-3.3-2.7-3.7-5.7-2.2s0.7,6.2,1.7,11.2c0.7,3.5,5.5,4,8.5,4c1.4,0,2.3-0.1,2.3-0.1
		c1.4,4.7,4.3,10.6,4.5,12c0.3,1.9,11.5,20.6,14.6,32.8c0.7,2.7,1,5,0.7,6.8c-0.5,3.1-2.5,5.8-5.1,8.1c-1.8,1.6-4,3.1-6.1,4.4
		c-0.8,0.5-1.6,1-2.4,1.4c-2.7-6.7-7.3-12.2-13.1-16.6c-0.5-8.9-9.9-15.9-21.4-15.9c-3.8,0-7.3,0.8-10.4,2.1
		c-10.7-2.5-21.3-3.5-29.2-3.5s-18.4,1-29.2,3.5c-3.1-1.3-6.6-2.1-10.4-2.1c-11.5,0-20.9,7.1-21.4,15.9c-5.8,4.4-10.4,9.9-13.1,16.6
		c-0.8-0.5-1.6-0.9-2.4-1.4c-2.1-1.3-4.2-2.8-6.1-4.4c-2.6-2.3-4.6-5-5.1-8.1c-0.3-1.8,0-4.2,0.7-6.8C33,84.2,44.3,65.5,44.5,63.5
		c0.2-1.4,3.1-7.4,4.5-12c0,0,1,0.1,2.3,0.1c3,0,7.8-0.6,8.5-4c1-5,4.7-9.7,1.7-11.2c-3-1.5-5.7-1.2-5.7,2.2c0,3.3-3.7,3.4-5.3,5.2
		c-1.7,1.8-4-4.2-4-4.2c-0.4-0.9,0-3.1,0.7-5.6c1.6-2.6,3.6-5.1,5.8-5.1c4.8,0,9.5-1.7,5.5-3.3c-1.8-0.7-4.3-1.4-6.7-1.7
		c0.7-1.1,1.2-2.3,1-3.7c-0.3-2.7-7.3,0-11.3,5.7c-3.1,4.4-4,13-4.2,16.6c0,0,0,0,0,0c-0.5,1.7-1.1,3.4-1.8,5.2
		C31.7,57,25,67.9,19,79.3c-9.5,17.8-17.4,36.6-9.8,52.1c6.6,13.4,18.9,21.4,28.2,25.7c3.9,1.8,7.2,3,9.5,3.7
		c0.7,1.2,1.5,2.4,2.4,3.6c5.3,6.8,13.5,12.1,26,14.2c-0.6-1.3-1.2-2.7-1.7-4.1c-3.5-2-5.1-5.3-5.1-9.8c0-3.1,0.8-5,2.5-6.1
		c0.3-24.8,21.1-31.2,45.9-31.2s45.5,6.4,45.9,31.2c1.7,1.1,2.5,2.9,2.5,6.1c0,4.5-1.6,7.9-5.1,9.8c-0.5,1.4-1.1,2.8-1.7,4.1
		c12.5-2.1,20.7-7.4,26-14.2c0.9-1.2,1.7-2.4,2.4-3.6c2.3-0.7,5.6-1.9,9.5-3.7c9.4-4.3,21.6-12.3,28.2-25.7
		c7.6-15.4-0.3-34.3-9.8-52.1C208.7,67.9,202,57,198.3,47.7z M64.5,93.2c0-2.9,3-5.3,6.8-5.3c3.8,0,6.8,2.4,6.8,5.3
		c0,2.9-3,5.3-6.8,5.3C67.6,98.5,64.5,96.2,64.5,93.2z M162.4,88c3.8,0,6.8,2.4,6.8,5.3c0,2.9-3,5.3-6.8,5.3c-3.8,0-6.8-2.4-6.8-5.3
		C155.6,90.3,158.6,88,162.4,88z"/>
	<path class="st3" d="M229.9,28.1c0,0,4.5-6.6,3.8-8.9c-0.7-2.3-2.9-6.6-3.8-3.3c-0.2,0.7-0.6,1.3-0.9,1.8c0.9-3,1.8-6.8,0.9-7.8
		c-1.6-1.7-5.4-2.3-5.9-1.8c-0.4,0.4-1.9,6.7-2,10.1c-0.1,0-0.2-0.1-0.2-0.1c0.6-2.9,1-10,0.9-12c-0.2-2.3-2.3-3.3-4.3-3
		c-1.1,0.2-2,3.4-2.5,6.6c0.2-3.2,0.3-6.5,0.2-7.3c-0.7-3.5-9.5-2.8-10.4,0c-0.7,2.3,0.9,12.4,2,15.7c0,0,0,0.1,0,0.1
		c-1,3.4-3.1,17.5-3.9,28.3c7-1.4,12.3-2.1,13.2-1.3c1.9,1.7,3.4,6.2,4.1,11.5C224.3,47.9,228.9,34.9,229.9,28.1
		C229.9,28.1,229.9,28.1,229.9,28.1z"/>
	<path class="st3" d="M30.1,46.5c-0.8-10.9-2.9-24.9-3.9-28.3c0,0,0-0.1,0-0.1c1.1-3.3,2.7-13.4,2-15.7c-0.8-2.8-9.7-3.5-10.4,0
		c-0.2,0.8,0,4,0.2,7.3c-0.5-3.2-1.4-6.4-2.5-6.6c-2-0.3-4.2,0.7-4.3,3c-0.1,1.9,0.3,9.1,0.9,12c-0.1,0-0.2,0.1-0.2,0.1
		c-0.1-3.4-1.6-9.7-2-10.1C9.4,7.5,5.5,8.2,3.9,9.9c-0.9,1,0,4.8,0.9,7.8c-0.4-0.5-0.7-1-0.9-1.8c-0.9-3.3-3.2,1-3.9,3.3
		c-0.7,2.3,3.8,8.9,3.8,8.9s0,0,0,0c1,6.9,5.6,19.8,8.9,28.6c0.7-5.2,2.1-9.8,4-11.5C17.7,44.4,23.1,45.1,30.1,46.5z"/>
	<path class="st1" d="M49.1,51.5c-1.4,4.7-4.3,10.6-4.5,12C44.3,65.5,33,84.2,29.9,96.4c1.8,2.7,3.6,5.4,5.5,8.1
		c4.9-24.8,21-38.1,38.5-45.3c-1.2-0.8-2.1-1.4-2.5-1.7c-1.2-0.7-9.8-3.3-19.9-5.9C50,51.6,49.1,51.5,49.1,51.5z"/>
	<path class="st1" d="M35.5,47.7c-1.9-0.4-3.7-0.8-5.4-1.2c-7-1.4-12.3-2.1-13.2-1.3c-1.9,1.7-3.3,6.2-3.9,11.5
		c-0.1,0.7-0.2,1.4-0.2,2.1c-0.2,2.3-0.3,4.8-0.2,7.1c0.1,2,2.6,7,6.5,13.4C25,67.9,31.7,57,35.5,47.7z"/>
	<path class="st2" d="M49.4,164.3c-0.9-1.2-1.7-2.4-2.4-3.6c-2.3-0.7-5.6-1.9-9.5-3.7c5.2,19.4,17.5,34,46.5,33.8
		c-2.2-2.3-4.2-4.8-5.9-7.5C64,181,55,173.8,49.4,164.3z"/>
	<path class="st2" d="M35.3,104.5c-0.4,2.2-0.8,4.4-1,6.8c1.8,1.6,4,3.1,6.1,4.4c3.4-44.8,52.4-49.8,76.5-49.8s73.1,5,76.5,49.8
		c2.1-1.3,4.2-2.8,6.1-4.4c-0.2-2.4-0.6-4.6-1-6.8c-4.9-24.8-21-38.1-38.5-45.3c-15.6-6.4-32.3-7.7-43-7.7s-27.4,1.4-43,7.7
		C56.3,66.4,40.2,79.7,35.3,104.5z"/>
	<path class="st3" d="M78,183.3c-1-1.5-1.9-3.2-2.6-4.8c-12.5-2.1-20.7-7.4-26-14.2C55,173.8,64,181,78,183.3z"/>
	<path class="st5" d="M71.3,98.5c3.8,0,6.8-2.4,6.8-5.3c0-2.9-3-5.3-6.8-5.3c-3.8,0-6.8,2.4-6.8,5.3C64.5,96.2,67.6,98.5,71.3,98.5z
		 M67.6,93.2c0-1.6,1.6-2.9,3.7-2.9c2,0,3.7,1.3,3.7,2.9c0,1.6-1.6,2.9-3.7,2.9C69.3,96.1,67.6,94.8,67.6,93.2z"/>
	<ellipse class="st6" cx="71.3" cy="93.2" rx="3.7" ry="2.9"/>
	<path d="M90.6,148.4l1.9,2.3c0,0,4.8-3.9,14.1-3l0.3-3C96.2,143.7,90.8,148.2,90.6,148.4z"/>
</g>
</svg>
